<svg width="48" height="48" viewBox="0 0 48 48" fill="none" xmlns="http://www.w3.org/2000/svg">
<path d="M24 12C28.7935 12 31.1907 12.0003 32.917 13.1426C33.6876 13.6525 34.3475 14.3124 34.8574 15.083C35.9997 16.8093 36 19.2065 36 24C36 28.7935 35.9997 31.1907 34.8574 32.917C34.3475 33.6876 33.6876 34.3475 32.917 34.8574C31.1907 35.9997 28.7935 36 24 36C19.2065 36 16.8093 35.9997 15.083 34.8574C14.3124 34.3475 13.6525 33.6876 13.1426 32.917C12.0003 31.1907 12 28.7935 12 24C12 19.2065 12.0003 16.8093 13.1426 15.083C13.6525 14.3124 14.3124 13.6525 15.083 13.1426C16.8093 12.0003 19.2065 12 24 12ZM24 17.7881C20.569 17.7881 17.7873 20.569 17.7871 24C17.7871 27.4311 20.5689 30.2129 24 30.2129C27.431 30.2128 30.2119 27.431 30.2119 24C30.2118 20.5691 27.4309 17.7882 24 17.7881ZM24 19.8896C26.2701 19.8898 28.1102 21.7299 28.1104 24C28.1104 26.2702 26.2702 28.1112 24 28.1113C21.7297 28.1113 19.8887 26.2703 19.8887 24C19.8888 21.7299 21.7298 19.8896 24 19.8896ZM30.458 16.0156C29.6518 16.0156 28.9981 16.6694 28.998 17.4756C28.998 18.2818 29.6518 18.9355 30.458 18.9355C31.2641 18.9354 31.917 18.2817 31.917 17.4756C31.917 16.6695 31.2641 16.0158 30.458 16.0156Z" fill="#3A2C92"/>
</svg>
