<svg width="48" height="48" viewBox="0 0 48 48" fill="none" xmlns="http://www.w3.org/2000/svg">
<path d="M24.0039 12C30.6211 12 36.0039 17.3828 36.0039 24C36.0039 30.6171 30.6212 36 24.0039 36C21.563 36 19.298 35.2733 17.4004 34.0176L12.7871 35.4922L14.2832 31.0332C12.8441 29.0578 11.9971 26.6243 11.9971 24C11.9971 17.3827 17.3798 12 23.9971 12H24.0039ZM19.4824 17.4883C19.0238 17.4883 18.5442 17.6229 18.2549 17.9189C17.9023 18.2787 17.0273 19.1184 17.0273 20.8398C17.0275 22.5611 18.2829 24.2261 18.4521 24.459C18.63 24.6939 20.9018 28.2753 24.4277 29.7354C27.1858 30.878 28.0041 30.7727 28.6318 30.6387C29.5489 30.4412 30.699 29.7634 30.9883 28.9453C31.2775 28.1269 31.2772 27.4284 31.1924 27.2803C31.1077 27.1323 30.8749 27.0476 30.5225 26.8711C30.1697 26.6946 28.4554 25.8482 28.1309 25.7354C27.8133 25.6155 27.5102 25.6584 27.2705 25.9971C26.9319 26.4696 26.6002 26.9492 26.332 27.2383C26.1204 27.464 25.7744 27.4921 25.4854 27.3721C25.0972 27.21 24.0112 26.8286 22.6709 25.6367C21.6338 24.7127 20.9281 23.5624 20.7236 23.2168C20.5194 22.8646 20.7023 22.6599 20.8643 22.4697C21.0407 22.2509 21.2103 22.0953 21.3867 21.8906C21.563 21.6863 21.6616 21.5804 21.7744 21.3408C21.8944 21.1081 21.8102 20.8678 21.7256 20.6914C21.641 20.515 20.9348 18.794 20.6455 18.0957C20.4128 17.5384 20.2364 17.5173 19.8838 17.5029C19.7502 17.4943 19.6163 17.489 19.4824 17.4883Z" fill="#3A2C92"/>
</svg>
