<svg width="48" height="48" viewBox="0 0 48 48" fill="none" xmlns="http://www.w3.org/2000/svg">
<path d="M24.5847 33.3056L19.1684 33.2044C17.4148 33.1691 15.6567 33.2395 13.9375 32.8741C11.322 32.328 11.1367 29.6508 10.9429 27.4052C10.6757 24.2481 10.7791 21.0336 11.2833 17.9029C11.5679 16.1462 12.6879 15.098 14.42 14.9839C20.2672 14.5699 26.1532 14.619 31.9874 14.8121C32.6035 14.8298 33.2239 14.9266 33.8315 15.0367C36.8306 15.574 36.9037 18.6078 37.0981 21.1618C37.292 23.7421 37.2101 26.3356 36.8396 28.8983C36.5423 31.0202 35.9734 32.7996 33.5729 32.9714C30.5653 33.196 27.6266 33.3768 24.6105 33.3192C24.6106 33.3056 24.5933 33.3056 24.5847 33.3056ZM21.4004 27.9336C23.667 26.6037 25.8903 25.296 28.1439 23.9751C25.8731 22.6452 23.654 21.3375 21.4004 20.0165V27.9336Z" fill="#3A2C92"/>
</svg>
