<svg width="800" height="800" viewBox="0 0 800 800" fill="none" xmlns="http://www.w3.org/2000/svg">
<path d="M782.794 206.854C787.122 206.692 790.516 206.709 794.825 206.832C793.411 210.766 789.782 217.129 787.692 221.05L775.473 244.08L731.641 326.615L656.313 468.45L631.235 515.598C627.04 523.485 622.001 533.723 617.497 541.121C614.923 545.418 611.563 549.192 607.594 552.246C602.743 556.004 543.958 592.672 540.016 593.614C535.45 592.91 531.43 583.778 534.329 581.352C537.462 578.735 543.239 575.516 546.86 573.289L575.516 555.524C582.747 551.114 591.536 546.27 598.282 541.465C606.95 535.289 610.794 521.008 610.325 510.637C608.899 479.035 582.243 440.813 548.427 439.246C541.677 438.934 538.177 446.332 534.239 450.711C522.841 437.504 526.028 437.969 534.997 426.703C538.067 422.844 541.454 411.875 542.442 406.766C542.915 404.891 543.071 403.555 543.235 401.637C544.665 385.643 539.52 369.755 528.981 357.639C516.067 342.556 496.895 335.751 477.364 337.853C474.22 338.192 468.688 340.255 466.423 339.884C463.876 339.469 459.798 330.784 458.348 328.228C463.72 326.441 469.098 324.505 472.048 319.266C478.016 308.657 478.895 292.248 476.325 280.682C472.044 261.889 460.442 245.579 444.098 235.362C438.356 231.756 432.012 229.178 425.364 227.711C404.743 223.159 393.665 234.908 377.143 244.788C364.892 252.349 352.583 259.943 340.315 267.466C335.223 270.589 325.813 277.453 320.449 278.52C317.854 275.714 312.703 269.055 316.572 265.752C320.714 262.218 326.82 258.939 331.561 256.032L358.883 239.244C368.951 233.043 379.502 225.862 389.754 220.183C409.2 209.413 436.196 211.979 457.79 211.761L526.524 210.864L782.794 206.854ZM450.454 223.655C455.716 229.359 461.684 234.049 467.134 240.104C482.989 257.731 490.661 278.074 489.516 301.744C489.356 305.033 489.11 307.271 488.591 310.509C488.091 313.625 484.372 320.292 486.407 322.77C491.325 324.702 498.93 324.397 504.927 326.156C525.735 332.264 542.731 346.271 551.411 366.26C557.817 380.939 559.29 397.301 555.602 412.887C554.516 417.59 552.524 422.414 551.571 426.551C562.419 429.41 568.559 431.18 578.173 437.582C602.266 455.5 615.915 478.993 620.833 508.465C644.677 464.645 668.282 419.453 691.563 375.281L713.7 333.777C715.626 330.19 727.759 308.829 726.927 306.659C725.188 302.116 718.618 292.196 715.798 287.646L694.18 252.743C688.466 243.578 683.028 234.263 677.251 225.115C674.208 220.296 672.626 220.559 667.059 220.673C664.856 220.718 662.544 220.819 660.329 220.903C608.829 221.985 557.321 222.722 505.813 223.115C487.345 223.255 468.899 224.036 450.454 223.655Z" fill="white" style="fill:white;fill-opacity:1;"/>
<path d="M63.8151 323.545C78.7127 322.465 94.1631 329.703 101.38 343.036C101.05 337.799 101.13 331.965 101.105 326.669C106.836 326.443 113.304 326.574 119.089 326.571L119.109 419.528L101.13 419.555L101.281 403.348C99.2674 406.719 98.3049 408.305 95.7174 411.235C80.5405 425.371 56.5467 425.559 39.6815 414.313C17.3362 399.418 12.8717 364.934 28.1076 343.519C37.3596 330.516 48.6772 326.068 63.8151 323.545ZM73.9998 405.18C91.7705 402.551 104.031 385.996 101.362 368.231C98.6932 350.467 82.108 338.245 64.3502 340.956C46.651 343.658 34.4787 360.176 37.139 377.881C39.7991 395.586 56.2885 407.797 73.9998 405.18Z" fill="white" style="fill:white;fill-opacity:1;"/>
<path d="M291.696 323.581C294.499 323.348 299.867 323.858 302.651 324.465C316.21 327.42 321.887 332.057 329.346 342.936C328.674 338.091 328.937 331.787 328.996 326.795C334.823 326.805 340.98 326.544 346.938 326.53C346.649 338.026 346.824 350.14 346.821 361.687L346.873 419.559L328.931 419.586C329.068 414.352 328.96 408.691 328.952 403.422C327.069 406.605 326.075 408.309 323.578 410.992C309.255 425.84 282.437 425.246 266.38 413.629C244.584 397.863 240.798 363.568 256.613 342.352C265.772 330.064 277.115 325.786 291.696 323.581ZM301.74 405.176C319.517 402.523 331.762 385.941 329.063 368.17C326.364 350.4 309.747 338.199 291.984 340.945C274.287 343.68 262.142 360.221 264.831 377.926C267.52 395.629 284.029 407.82 301.74 405.176Z" fill="white" style="fill:white;fill-opacity:1;"/>
<path d="M189.757 493.437C216.911 490.992 240.934 510.957 243.494 538.101C246.055 565.246 226.19 589.351 199.057 592.027C171.763 594.718 147.482 574.707 144.906 547.402C142.33 520.097 162.441 495.898 189.757 493.437ZM195.497 574.863C213.088 574.156 226.82 559.398 226.266 541.8C225.713 524.203 211.08 510.343 193.478 510.738C175.654 511.14 161.577 526 162.138 543.82C162.699 561.64 177.682 575.586 195.497 574.863Z" fill="white" style="fill:white;fill-opacity:1;"/>
<path d="M153.959 326.477L154.297 326.49C155.043 327.742 154.487 370.914 154.779 376.93C156.456 411.562 204.674 413.043 211.061 382.424C213.036 372.954 212.606 337.525 211.802 326.836C216.273 326.685 225.671 326.939 229.645 326.252C229.963 348.654 229.875 371.205 229.765 393.617C229.653 416.66 233.283 435.957 217.694 455.051C208.909 465.078 198.593 471.066 185.172 472.824C180.116 473.488 175.257 473.176 170.215 473.527C170.337 467.961 170.216 461.41 169.98 455.855C182.985 455.527 192.59 455.301 202.324 445.285C212.926 434.379 212.269 422.375 211.915 408.219C204.086 415.988 196.288 421.684 184.83 422.203C172.537 422.738 160.544 418.32 151.535 409.941C135.961 395.426 136.606 379.861 136.824 360.493C136.942 349.968 137.048 337.334 136.715 326.852C142.46 326.6 148.209 326.475 153.959 326.477Z" fill="white" style="fill:white;fill-opacity:1;"/>
<path d="M5.91016 496.832C9.20672 497.218 20.4171 496.933 24.5169 497.066C26.3505 501.207 28.8086 510.187 30.3329 515.058L41.6534 551.425C43.2448 556.539 44.6768 562.222 46.4897 567.164C52.0554 546.136 59.8132 523.504 66.0206 502.355C69.5776 502.289 77.4085 501.839 80.4819 502.839C82.2206 504.535 98.9753 560.183 100.992 567.421C106.164 551.32 110.666 534.129 115.962 517.968C118.177 511.211 120.041 503.632 122.503 497.031C126.944 496.652 136.257 496.91 140.958 496.886C139.273 502.496 137.144 508.554 135.301 514.16L110.183 589.863C104.535 589.789 98.8866 589.773 93.2382 589.808C88.3901 577.504 85.3347 562.699 80.8999 550.015C78.0901 541.984 75.3429 532.589 73.4069 524.332C69.3616 538.461 65.2061 552.554 60.9413 566.617C58.7858 573.847 56.4331 582.871 53.921 589.824C48.2925 589.777 42.6639 589.828 37.0377 589.98L5.91016 496.832Z" fill="white" style="fill:white;fill-opacity:1;"/>
<path d="M321.469 462.605C324.336 462.476 335.032 462.851 338.347 462.956L338.257 533.241C339.937 531.312 341.822 529.406 343.632 527.589C353.979 517.191 364.136 506.437 374.678 496.245C379.476 496.136 392.546 496.62 396.234 495.913C393.074 500.007 387.557 504.695 383.83 508.531C374.474 518.167 364.032 527.628 354.868 537.398C364.925 549.238 374.252 561.441 384.206 573.187C388.291 577.956 393.015 584.824 397.441 589.07C390.472 589.191 383.504 589.187 376.537 589.062C374.241 586.511 372.022 583.796 369.911 581.089C359.483 567.718 348.2 554.726 338.089 541.144C339.088 555.933 337.85 573.824 338.422 589.124L320.285 589.167C320.814 549.32 319.867 509.257 320.309 469.39C320.33 467.523 320.061 464.906 320.505 463.171L321.469 462.605Z" fill="white" style="fill:white;fill-opacity:1;"/>
<path d="M435.809 493.914C448.031 492.734 460.816 497.476 466.422 508.961C468.434 513.086 468.84 516.222 469.523 520.691C463.734 520.687 457.945 520.738 452.16 520.847C450.633 512.769 447.625 508.722 438.836 508.117C431.93 507.644 424.887 512.925 425.176 520.043C425.66 531.996 444.699 533.441 453.16 536.992C457.863 538.961 461.629 540.398 465.258 544.054C475.211 554.058 474.004 573.257 463.652 582.652C455.219 590.308 447.039 592.007 435.996 591.82C429.672 591.699 421.203 588.562 416.262 584.648C408.414 578.429 406.379 571.882 405.102 562.492C410.648 562.207 417.336 562.078 422.863 562.476C423.727 566.652 424.156 569.679 427.414 572.808C431.305 576.55 435.703 577.597 441.012 577.269C444.84 577.054 448.41 575.281 450.891 572.359C452.953 569.922 454.848 565.937 454.355 562.636C452.023 546.976 425.199 547.957 414.887 538.312C410.535 534.703 407.93 529.945 407.492 524.187C406.137 506.312 418.676 495.234 435.809 493.914Z" fill="white" style="fill:white;fill-opacity:1;"/>
<path d="M376.754 293.086C382.701 293.111 388.649 293.074 394.597 292.973C394.652 304.192 394.655 315.412 394.597 326.632C400.163 326.549 405.734 326.522 411.3 326.551C411.394 331.066 411.245 335.863 411.624 340.334C407.491 340.682 398.671 340.771 394.636 340.266L394.624 396.223L394.577 410.629C394.589 412.996 394.788 417.09 394.441 419.282L393.804 419.586C388.215 419.493 382.418 419.594 376.814 419.621C377.335 393.852 375.893 366.002 376.886 340.541L359.883 340.566C360.205 337.109 360.12 330.385 359.925 326.883L376.873 326.61C376.233 316.276 377.07 303.755 376.754 293.086Z" fill="white" style="fill:white;fill-opacity:1;"/>
<path d="M303.369 494.289C304.482 494.23 304.633 494.254 305.743 494.414C306.195 495.824 305.941 509.523 305.92 512.082C304.857 512.043 303.793 512.039 302.73 512.066C273.292 513.117 280.217 544.594 279.405 564.773C279.099 572.387 279.045 582.289 279.547 589.859C273.532 589.777 267.517 589.777 261.502 589.859C261.639 586.867 261.602 583.586 261.628 580.566L261.617 527.133C261.627 518.492 262.054 505.191 261.348 497.062C266.851 496.82 272.794 496.969 278.443 496.797C278.618 501.062 278.243 506.172 278.038 510.496C285.332 499.625 289.977 495.848 303.369 494.289Z" fill="white" style="fill:white;fill-opacity:1;"/>
<path d="M425.61 326.718C431.243 326.358 437.934 326.52 443.594 326.555C443.926 339.946 443.559 354.789 443.567 368.313C443.575 384.733 443.837 401.907 443.532 418.266L443.407 419.106C441.837 419.95 428.637 419.578 425.794 419.559C425.469 398.918 425.723 377.696 425.743 357.013L425.7 336.402C425.684 333.7 425.446 329.142 425.61 326.718Z" fill="white" style="fill:white;fill-opacity:1;"/>
<path d="M424.148 269.232C430.507 269.013 430.613 271.191 436.14 272.085C439.48 272.331 443.011 270.202 446.3 270.169C454.617 270.05 459.785 277.619 459.843 285.381C459.914 295.07 449.652 303.25 443.328 309.864C441.085 312.279 437.199 317.422 433.777 317.076C429.835 314.66 418.339 299.485 415.253 294.912C408.734 285.254 411.417 271.987 424.148 269.232Z" fill="white" style="fill:white;fill-opacity:1;"/>
</svg>
